<svg id="Layer_3" height="512" viewBox="0 0 64 64" width="512" xmlns="http://www.w3.org/2000/svg" data-name="Layer 3"><path d="m45.95 16.95a1 1 0 0 1 -.707-.293l-4.95-4.95a1 1 0 0 1 1.414-1.414l4.95 4.95a1 1 0 0 1 -.707 1.707z" fill="#e3774a"/><path d="m11 14.482a1 1 0 0 1 -.707-1.707l4.243-4.242a1 1 0 0 1 1.414 1.414l-4.243 4.242a1 1 0 0 1 -.707.293z" fill="#e3774a"/><path d="m11 13.483 4.243-4.243" fill="#231f20"/><path d="m40.17 5.07a5.808 5.808 0 0 0 -3.41 1.69 5.981 5.981 0 0 0 0 8.48l1.9-1.9 6.58-6.58a5.923 5.923 0 0 0 -5.07-1.69z" fill="#e3774a"/><path d="m21.607 2.876c-1.562-1.562-4.8-.855-6.364.707a4 4 0 1 0 5.657 5.657c1.562-1.562 2.269-4.802.707-6.364z" fill="#55bd8d"/><path d="m40.17 5.07a24.188 24.188 0 0 0 -1.51 8.27l-1.9 1.9a5.981 5.981 0 0 1 0-8.48 5.808 5.808 0 0 1 3.41-1.69z" fill="#e55421"/><path d="m13 23a1 1 0 0 1 -1-1v-2a1 1 0 0 1 2 0v2a1 1 0 0 1 -1 1z" fill="#e55421"/><path d="m23 19a1 1 0 0 1 -1-1v-2a1 1 0 0 1 2 0v2a1 1 0 0 1 -1 1z" fill="#0d8e85"/><path d="m30 4a1 1 0 0 1 -1-1v-2a1 1 0 0 1 2 0v2a1 1 0 0 1 -1 1z" fill="#e55421"/><path d="m52 11a1 1 0 0 1 -1-1v-2a1 1 0 0 1 2 0v2a1 1 0 0 1 -1 1z" fill="#55bd8d"/><path d="m51 23a1 1 0 0 1 -1-1v-2a1 1 0 0 1 2 0v2a1 1 0 0 1 -1 1z" fill="#0d8e85"/><path d="m57 39.5v7.5c0 7.46-11.19 17-25 17-.5 0-.99-.01-1.48-.04h-.01c-13.11-.65-23.51-9.77-23.51-16.96v-7.5z" fill="#55bd8d"/><path d="m57 43v4c0 7.46-11.19 17-25 17-.5 0-.99-.01-1.48-.04a19.869 19.869 0 0 0 4.02-2.08h.01a15.2 15.2 0 0 0 6.45-15.19l1.89-3.69z" fill="#3a9165"/><ellipse cx="32" cy="39.5" fill="#e55421" rx="25" ry="13.5"/><g fill="#aa3713"><path d="m17 40h-4a1 1 0 0 1 0-2h4a1 1 0 0 1 0 2z"/><path d="m17 46a1 1 0 0 1 -.556-1.832l3-2a1 1 0 0 1 1.109 1.664l-3 2a1 1 0 0 1 -.553.168z"/><path d="m20 36a1 1 0 0 1 -.554-.168l-3-2a1 1 0 1 1 1.109-1.664l3 2a1 1 0 0 1 -.555 1.832z"/><path d="m51 40h-4a1 1 0 0 1 0-2h4a1 1 0 0 1 0 2z"/><path d="m44 36a1 1 0 0 1 -.556-1.832l3-2a1 1 0 1 1 1.109 1.664l-3 2a1 1 0 0 1 -.553.168z"/><path d="m47 46a1 1 0 0 1 -.554-.168l-3-2a1 1 0 1 1 1.109-1.664l3 2a1 1 0 0 1 -.555 1.832z"/></g><rect fill="#02483d" height="9" rx="1" width="8" y="35"/><rect fill="#02483d" height="9" rx="1" width="8" x="56" y="35"/><path d="m19.76 52.273a1 1 0 0 1 -.752-1.658l7.08-8.091a1 1 0 1 1 1.5 1.316l-7.08 8.091a1 1 0 0 1 -.748.342z" fill="#55bd8d"/><path d="m28.039 53.831a1.039 1.039 0 0 1 -.218-.023 1 1 0 0 1 -.759-1.193l1.979-8.907a1 1 0 1 1 1.952.434l-1.979 8.907a1 1 0 0 1 -.975.782z" fill="#55bd8d"/><path d="m35.961 53.831a1 1 0 0 1 -.975-.783l-2.009-9.048a1 1 0 1 1 1.952-.434l2.009 9.043a1 1 0 0 1 -.759 1.193 1.039 1.039 0 0 1 -.218.029z" fill="#55bd8d"/><path d="m44.24 52.273a1 1 0 0 1 -.753-.342l-7.355-8.405a1 1 0 1 1 1.5-1.316l7.355 8.405a1 1 0 0 1 -.752 1.658z" fill="#55bd8d"/><path d="m32 32a1 1 0 0 1 -1-1v-5a1 1 0 0 1 2 0v5a1 1 0 0 1 -1 1z" fill="#55bd8d"/><path d="m27 58h-1a1 1 0 0 1 0-2h1a1 1 0 0 1 0 2z" fill="#02483d"/><path d="m22 58h-1a1 1 0 0 1 0-2h1a1 1 0 0 1 0 2z" fill="#02483d"/><path d="m32 54c-14.58 0-26-6.369-26-14.5 0-3.573 2.3-6.99 6.466-9.62a1 1 0 0 1 1.067 1.691c-3.568 2.251-5.533 5.067-5.533 7.929 0 6.893 10.767 12.5 24 12.5 6.684 0 12.9-1.422 17.511-4a1 1 0 1 1 .978 1.744c-4.902 2.743-11.468 4.256-18.489 4.256z" fill="#02483d"/><path d="m53.917 47a1 1 0 0 1 -.7-1.714 8.11 8.11 0 0 0 2.783-5.786c0-6.893-10.767-12.5-24-12.5a39.337 39.337 0 0 0 -14.625 2.626 1 1 0 0 1 -.752-1.854 41.351 41.351 0 0 1 15.377-2.772c14.58 0 26 6.369 26 14.5a10.155 10.155 0 0 1 -3.383 7.214 1 1 0 0 1 -.7.286z" fill="#02483d"/><path d="m31.5 33.5c-5.047 0-9 2.416-9 5.5s3.953 5.5 9 5.5 9-2.416 9-5.5-3.953-5.5-9-5.5z" fill="#e6e7e8"/><ellipse cx="31.5" cy="38" fill="#ffde17" rx="5.5" ry="3"/></svg>